<?xml version="1.0" standalone="no"?>
<!DOCTYPE svg PUBLIC "-//W3C//DTD SVG 20010904//EN"
 "http://www.w3.org/TR/2001/REC-SVG-20010904/DTD/svg10.dtd">
<svg version="1.0" xmlns="http://www.w3.org/2000/svg"
 width="260.000000pt" height="260.000000pt" viewBox="0 0 260.000000 260.000000"
 preserveAspectRatio="xMidYMid meet">

<g transform="translate(0.000000,260.000000) scale(0.100000,-0.100000)"
fill="#E80E4F" stroke="none">
<path d="M1264 2315 c-17 -8 -43 -28 -57 -45 -96 -113 -16 -280 133 -280 51 0
88 19 128 64 66 75 50 188 -35 246 -42 29 -123 36 -169 15z"/>
<path d="M716 1935 c-107 -38 -228 -236 -276 -453 -41 -186 -21 -374 56 -532
44 -88 159 -209 239 -251 212 -110 496 -108 728 6 l68 33 -32 -35 c-140 -160
-374 -273 -629 -304 -107 -13 -222 -1 -319 32 -30 11 -57 17 -59 14 -10 -10
59 -72 108 -99 278 -151 801 -26 1084 260 62 63 97 114 132 194 27 60 29 75
29 185 0 141 -14 183 -91 265 l-48 51 53 -20 c75 -28 126 -66 161 -120 80
-120 84 -287 11 -441 -14 -31 -56 -87 -97 -130 -39 -41 -76 -85 -83 -97 -17
-33 -13 -89 9 -132 68 -133 240 -112 337 41 118 188 169 392 143 578 -26 192
-106 336 -252 453 -128 102 -239 139 -423 140 -149 0 -224 -17 -357 -83 -43
-22 -78 -35 -78 -31 0 11 97 92 174 145 300 205 643 235 876 78 24 -17 46 -29
48 -27 9 8 -40 74 -87 118 -98 92 -197 121 -401 121 -149 0 -247 -16 -380 -62
-157 -54 -343 -177 -431 -286 -66 -80 -124 -202 -140 -293 -20 -119 18 -256
93 -335 34 -37 34 -37 9 -32 -75 18 -166 111 -201 205 -18 47 -23 82 -23 148
0 153 54 268 191 408 78 79 91 112 73 179 -12 46 -51 87 -103 108 -45 19 -61
19 -112 1z m650 -751 c29 -19 54 -63 54 -94 0 -36 -31 -90 -61 -105 -59 -31
-120 -12 -150 47 -24 47 -24 75 1 116 32 52 105 69 156 36z"/>
<path d="M2030 1608 c-30 -11 -40 -25 -40 -59 0 -46 49 -74 91 -53 72 36 24
140 -51 112z"/>
<path d="M435 731 c-37 -16 -60 -51 -60 -93 0 -33 6 -45 33 -69 43 -39 84 -38
123 0 51 51 33 137 -33 160 -35 13 -36 13 -63 2z"/>
</g>
</svg>
