<?xml version="1.0" standalone="no"?>
<!DOCTYPE svg PUBLIC "-//W3C//DTD SVG 20010904//EN"
 "http://www.w3.org/TR/2001/REC-SVG-20010904/DTD/svg10.dtd">
<svg version="1.0" xmlns="http://www.w3.org/2000/svg"
 width="260.000000pt" height="260.000000pt" viewBox="0 0 260.000000 260.000000"
 preserveAspectRatio="xMidYMid meet">

<g transform="translate(0.000000,260.000000) scale(0.100000,-0.100000)"
fill="#E80E4F" stroke="none">
<path d="M1205 2271 c-81 -36 -130 -121 -123 -212 13 -174 216 -259 352 -147
122 101 91 301 -56 362 -50 21 -124 20 -173 -3z"/>
<path d="M684 1886 c-69 -30 -99 -109 -68 -178 22 -50 66 -78 119 -78 52 0 84
17 113 60 47 69 15 162 -65 196 -40 17 -59 17 -99 0z"/>
<path d="M1805 1886 c-79 -35 -109 -128 -63 -196 29 -42 61 -60 111 -60 53 0
93 26 118 78 35 71 6 148 -67 178 -41 17 -60 17 -99 0z"/>
<path d="M1203 1685 c-117 -32 -199 -99 -255 -206 -32 -61 -33 -69 -33 -174 0
-98 3 -116 27 -167 126 -269 488 -306 663 -68 92 126 101 311 20 440 -38 60
-130 137 -192 160 -75 28 -164 34 -230 15z"/>
<path d="M415 1476 c-37 -17 -80 -62 -94 -99 -25 -64 -2 -167 45 -209 29 -25
89 -48 127 -48 69 0 143 50 166 113 14 37 14 123 0 150 -17 32 -60 77 -91 93
-34 18 -113 18 -153 0z"/>
<path d="M2005 1467 c-82 -46 -113 -165 -67 -253 69 -133 274 -120 328 21 34
90 1 187 -80 236 -45 27 -129 25 -181 -4z"/>
<path d="M684 970 c-27 -11 -72 -65 -80 -97 -10 -36 11 -95 45 -127 80 -77
221 -13 221 99 0 91 -101 159 -186 125z"/>
<path d="M1810 972 c-79 -35 -112 -120 -75 -192 19 -37 74 -70 117 -70 74 0
147 84 134 154 -15 80 -110 137 -176 108z"/>
<path d="M1205 723 c-165 -87 -167 -310 -3 -394 45 -23 125 -25 176 -3 175 73
175 325 0 398 -48 20 -134 20 -173 -1z"/>
</g>
</svg>
