<?xml version="1.0" standalone="no"?>
<!DOCTYPE svg PUBLIC "-//W3C//DTD SVG 20010904//EN"
 "http://www.w3.org/TR/2001/REC-SVG-20010904/DTD/svg10.dtd">
<svg version="1.0" xmlns="http://www.w3.org/2000/svg"
 width="1024.000000pt" height="1024.000000pt" viewBox="0 0 1024.000000 1024.000000"
 preserveAspectRatio="xMidYMid meet">

<g transform="translate(0.000000,1024.000000) scale(0.100000,-0.100000)"
fill="#E80E4F" stroke="none">
<path d="M5338 8701 c-118 -39 -164 -141 -123 -277 8 -27 40 -88 71 -134 95
-140 119 -201 119 -295 0 -69 -4 -89 -32 -147 -38 -81 -144 -196 -288 -311
-119 -96 -197 -176 -313 -317 -385 -472 -743 -846 -1057 -1105 -245 -203 -321
-278 -385 -376 -103 -160 -137 -392 -85 -584 55 -203 207 -375 430 -485 126
-63 231 -90 344 -90 174 0 264 40 484 214 87 69 188 143 225 163 185 104 412
146 858 159 242 7 287 1 329 -44 168 -181 -334 -599 -1065 -886 -327 -128
-585 -193 -805 -203 -114 -5 -140 -3 -210 16 -101 28 -171 65 -267 144 -99 80
-170 123 -255 152 -301 105 -620 18 -828 -226 -24 -29 -62 -86 -84 -128 -70
-137 -100 -264 -131 -561 -35 -334 -75 -405 -344 -609 -158 -120 -224 -210
-267 -366 -24 -88 -29 -237 -10 -332 40 -205 173 -378 356 -464 135 -64 -86
-59 2891 -57 l2709 3 57 23 c115 46 178 122 178 213 0 39 -10 69 -53 151 -70
135 -93 196 -112 297 -29 159 -13 330 47 499 38 108 66 165 186 372 258 444
393 818 477 1313 39 236 50 375 49 677 0 474 -55 816 -198 1235 -132 388 -288
687 -520 998 -513 685 -1241 1180 -1976 1343 -123 28 -351 42 -402 25z m95
-1957 c80 -57 110 -168 68 -260 -66 -145 -292 -148 -369 -4 -52 98 -11 227 88
278 63 33 155 27 213 -14z m-842 -3466 c180 -89 283 -276 250 -454 -39 -212
-218 -364 -430 -364 -74 0 -167 21 -209 47 -82 50 -110 73 -149 127 -94 127
-109 298 -40 439 56 113 137 186 254 227 46 16 77 20 154 17 88 -2 103 -6 170
-39z"/>
</g>
</svg>
