<?xml version="1.0" standalone="no"?>
<!DOCTYPE svg PUBLIC "-//W3C//DTD SVG 20010904//EN"
 "http://www.w3.org/TR/2001/REC-SVG-20010904/DTD/svg10.dtd">
<svg version="1.0" xmlns="http://www.w3.org/2000/svg"
 width="260.000000pt" height="260.000000pt" viewBox="0 0 260.000000 260.000000"
 preserveAspectRatio="xMidYMid meet">

<g transform="translate(0.000000,260.000000) scale(0.100000,-0.100000)"
fill="#E80E4F" stroke="none">
<path d="M830 2311 c-97 -31 -186 -109 -228 -199 -24 -50 -27 -69 -26 -157 0
-122 19 -169 96 -252 96 -102 219 -139 353 -108 118 27 203 96 254 205 22 47
26 69 26 150 0 87 -3 101 -32 161 -39 79 -102 140 -181 177 -47 22 -74 27
-147 29 -49 1 -101 -1 -115 -6z"/>
<path d="M1850 2051 c-122 -65 -135 -233 -25 -317 62 -47 165 -43 230 8 80 63
85 212 9 279 -58 51 -151 64 -214 30z"/>
<path d="M1730 1346 c-131 -28 -236 -114 -296 -241 -31 -64 -37 -89 -42 -163
-11 -196 78 -357 242 -437 189 -92 390 -56 536 96 132 138 158 346 65 530 -34
67 -141 162 -211 189 -111 41 -193 48 -294 26z"/>
<path d="M560 1321 c-184 -38 -286 -236 -211 -408 26 -59 93 -126 149 -150 58
-25 166 -22 230 6 67 30 135 104 158 173 20 61 15 167 -10 216 -61 118 -197
188 -316 163z"/>
<path d="M1010 552 c-93 -46 -99 -193 -10 -246 35 -20 102 -21 141 -1 94 49
92 203 -4 248 -45 22 -83 21 -127 -1z"/>
</g>
</svg>
