<?xml version="1.0" standalone="no"?>
<!DOCTYPE svg PUBLIC "-//W3C//DTD SVG 20010904//EN"
 "http://www.w3.org/TR/2001/REC-SVG-20010904/DTD/svg10.dtd">
<svg version="1.0" xmlns="http://www.w3.org/2000/svg"
 width="260.000000pt" height="260.000000pt" viewBox="0 0 260.000000 260.000000"
 preserveAspectRatio="xMidYMid meet">

<g transform="translate(0.000000,260.000000) scale(0.100000,-0.100000)"
fill="#E80E4F" stroke="none">
<path d="M1165 2015 c-219 -41 -409 -193 -502 -403 -67 -153 -69 -394 -4 -544
l20 -48 143 0 c303 1 597 67 868 196 135 65 290 160 290 179 0 53 -36 181 -71
253 -34 70 -58 103 -128 173 -73 73 -102 94 -183 134 -146 70 -278 89 -433 60z"/>
<path d="M1887 1834 c-4 -4 9 -25 29 -46 19 -21 42 -54 51 -73 15 -31 21 -35
72 -41 31 -4 83 -15 117 -25 144 -44 140 -128 -13 -254 -228 -188 -499 -318
-841 -405 -341 -86 -750 -87 -908 -2 -44 24 -49 31 -52 66 -4 51 30 100 125
178 l73 59 0 57 c0 31 5 74 11 95 6 22 8 41 5 44 -2 3 -48 -27 -100 -67 -232
-175 -319 -334 -255 -466 42 -87 133 -141 298 -176 85 -18 121 -19 306 -15
211 6 323 19 490 58 418 97 755 264 988 487 120 116 160 206 138 307 -24 106
-111 170 -282 205 -91 19 -239 27 -252 14z"/>
<path d="M1815 921 c-221 -112 -519 -199 -746 -217 -59 -4 -89 -10 -86 -18 6
-18 106 -64 177 -82 87 -22 259 -14 349 15 96 32 189 85 259 147 68 61 191
215 170 213 -7 -1 -63 -27 -123 -58z"/>
</g>
</svg>
