<?xml version="1.0" standalone="no"?>
<!DOCTYPE svg PUBLIC "-//W3C//DTD SVG 20010904//EN"
 "http://www.w3.org/TR/2001/REC-SVG-20010904/DTD/svg10.dtd">
<svg version="1.0" xmlns="http://www.w3.org/2000/svg"
 width="260.000000pt" height="260.000000pt" viewBox="0 0 260.000000 260.000000"
 preserveAspectRatio="xMidYMid meet">

<g transform="translate(0.000000,260.000000) scale(0.100000,-0.100000)"
fill="#E80E4F" stroke="none">
<path d="M1256 2221 c-16 -18 -84 -168 -203 -446 -30 -71 -58 -133 -62 -137
-3 -4 -143 -23 -310 -43 -167 -20 -312 -40 -321 -45 -22 -12 -30 -32 -30 -73
0 -34 30 -66 235 -250 50 -44 121 -109 159 -145 l70 -63 -12 -52 c-38 -171
-94 -414 -111 -487 -26 -105 -26 -105 -1 -130 42 -42 59 -34 427 181 112 66
205 119 209 119 3 0 18 -8 32 -19 37 -26 416 -248 474 -277 26 -13 58 -24 71
-24 31 0 57 29 57 66 0 28 -33 181 -105 487 l-32 138 161 142 c88 78 196 176
240 218 75 73 79 79 72 110 -13 68 -20 71 -356 107 -168 18 -308 36 -312 40
-6 6 -73 168 -195 467 -24 61 -52 116 -61 123 -24 18 -76 15 -96 -7z"/>
</g>
</svg>
