<?xml version="1.0" standalone="no"?>
<!DOCTYPE svg PUBLIC "-//W3C//DTD SVG 20010904//EN"
 "http://www.w3.org/TR/2001/REC-SVG-20010904/DTD/svg10.dtd">
<svg version="1.0" xmlns="http://www.w3.org/2000/svg"
 width="512.000000pt" height="512.000000pt" viewBox="0 0 512.000000 512.000000"
 preserveAspectRatio="xMidYMid meet">

<g transform="translate(0.000000,512.000000) scale(0.100000,-0.100000)"
fill="#ffffff" stroke="none">
<path d="M2485 3921 c-52 -23 -101 -80 -115 -132 -7 -26 -10 -123 -8 -268 3
-226 3 -226 30 -273 32 -53 108 -98 168 -98 60 0 136 45 168 98 27 47 27 47
30 273 2 145 -1 242 -8 268 -21 80 -110 151 -190 151 -19 0 -53 -9 -75 -19z"/>
<path d="M820 3237 c-19 -6 -51 -28 -71 -48 -59 -59 -74 -141 -40 -214 23 -49
343 -369 384 -385 36 -13 108 -13 144 1 38 14 92 67 109 106 19 45 17 110 -5
158 -11 25 -84 104 -187 207 -196 193 -227 209 -334 175z"/>
<path d="M4171 3235 c-36 -11 -75 -45 -209 -177 -90 -90 -172 -180 -183 -200
-22 -44 -25 -115 -5 -161 17 -39 71 -92 109 -106 39 -15 112 -14 150 3 18 8
109 92 204 187 170 173 193 205 193 269 0 60 -53 146 -109 174 -42 22 -102 26
-150 11z"/>
<path d="M2455 2753 c-591 -49 -1085 -467 -1230 -1039 -24 -92 -45 -247 -45
-327 0 -29 10 -63 28 -98 22 -43 38 -59 81 -81 l53 -28 1218 0 1218 0 53 28
c43 22 59 38 82 82 28 54 29 58 23 160 -29 471 -275 873 -684 1119 -225 135
-533 206 -797 184z"/>
<path d="M175 1573 c-11 -2 -30 -6 -43 -9 -36 -7 -99 -72 -118 -120 -34 -89 6
-194 91 -238 37 -19 59 -21 279 -24 l239 -3 53 26 c59 29 97 80 109 146 17 94
-55 197 -153 218 -50 10 -412 14 -457 4z"/>
<path d="M4475 1566 c-90 -25 -156 -126 -140 -215 12 -66 50 -117 109 -146
l53 -26 239 3 c271 3 292 8 345 81 70 96 35 235 -75 295 -43 23 -454 29 -531
8z"/>
</g>
</svg>
